<svg xmlns="http://www.w3.org/2000/svg" xmlns:xlink="http://www.w3.org/1999/xlink" version="1.1" width="612pt" height="792pt" viewBox="0 0 612 792">
<defs>
<clipPath id="clip_0">
<path transform="matrix(.75,0,0,.75,0,0)" d="M0 0H816V1056H0Z"/>
</clipPath>
</defs>
<g clip-path="url(#clip_0)">
<path transform="matrix(.7048253,0,0,.7048253,2.8193012,748.7993)" d="M-4 4V-1062.39H864.3V4H-4Z" fill="#ffffff"/>
<text xml:space="preserve" transform="matrix(.7048253 0 0 .7048253 2.8193012 748.7993)" font-size="14" font-family="Times" font-weight="bold"><tspan y="-1044.19" x="8 15 25.108 32.108 45.324 52.324 60.108 66.324">xR_Model</tspan></text>
<text xml:space="preserve" transform="matrix(.7048253 0 0 .7048253 2.8193012 748.7993)" font-size="14" font-family="Times"><tspan y="-1030.19" x="8 15 22 25.5 29.392 35.608 42.608 48.054 55.054 59.716 65.162 68.662 72.554 79.554 83.446 89.662 93.554 97.054 101.716 108.716 112.216 119.216 122.716 132.824 142.162">15 tensors total (2.5 KB)</tspan></text>
<text xml:space="preserve" transform="matrix(.7048253 0 0 .7048253 2.8193012 748.7993)" font-size="14" font-family="Times"><tspan y="-1016.19" x="8 15 22 25.5 32.5 38.716 43.378 49.594 60.486 65.932 69.432 73.324 80.324 84.216 90.432 94.324 97.824 102.486 109.486 112.986 119.986 123.486 133.594 142.932">87 params total (1.3 KB)</tspan></text>
<path transform="matrix(.7048253,0,0,.7048253,2.8193012,748.7993)" d="M146.3-8V-238.52H852.3V-8H146.3Z" fill="#ffffff"/>
<path transform="matrix(.7048253,0,0,.7048253,2.8193012,748.7993)" stroke-width="5" stroke-linecap="butt" stroke-miterlimit="4" stroke-linejoin="miter" fill="none" stroke="#000000" d="M146.3-8V-238.52H852.3V-8H146.3Z"/>
<text xml:space="preserve" transform="matrix(.7048253 0 0 .7048253 2.8193012 748.7993)" font-size="14" font-family="Times" font-weight="bold"><tspan y="-224.32" x="154.3 167.32 175.104 181.068 187.284 192.73 198.176 205.96 211.924 218.14 225.14 229.032 236.032 242.892 249.108">@pressure_layer</tspan></text>
<text xml:space="preserve" transform="matrix(.7048253 0 0 .7048253 2.8193012 748.7993)" font-size="14" font-family="Times"><tspan y="-210.32" x="154.3 158.962 167.516 175.3 183.854 196.3">(LSTM)</tspan></text>
<path transform="matrix(.7048253,0,0,.7048253,2.8193012,748.7993)" d="M138.39-41.46C138.39-28.880679 125.22152-17.256907 103.845-10.967246 82.46848-4.677585 56.13152-4.677585 34.755-10.967246 13.37848-17.256907 .21-28.880679 .21-41.46 .21-54.03932 13.37848-65.66309 34.755-71.95275 56.13152-78.24242 82.46848-78.24242 103.845-71.95275 125.22152-65.66309 138.39-54.03932 138.39-41.46Z" fill="#98fb98"/>
<path transform="matrix(.7048253,0,0,.7048253,2.8193012,748.7993)" stroke-width="1" stroke-linecap="butt" stroke-miterlimit="4" stroke-linejoin="miter" fill="none" stroke="#000000" d="M138.39-41.46C138.39-28.880679 125.22152-17.256907 103.845-10.967246 82.46848-4.677585 56.13152-4.677585 34.755-10.967246 13.37848-17.256907 .21-28.880679 .21-41.46 .21-54.03932 13.37848-65.66309 34.755-71.95275 56.13152-78.24242 82.46848-78.24242 103.845-71.95275 125.22152-65.66309 138.39-54.03932 138.39-41.46Z"/>
<text xml:space="preserve" transform="matrix(.7048253 0 0 .7048253 2.8193012 748.7993)" font-size="14" font-family="Times" font-weight="bold"><tspan y="-52.26" x="46.8 50.692 58.476 66.26 74.044 78.706 85.706">input_1</tspan></text>
<text xml:space="preserve" transform="matrix(.7048253 0 0 .7048253 2.8193012 748.7993)" font-size="14" font-family="Times"><tspan y="-38.26" x="29.3 36.3 43.3 50.3 57.3 64.3 67.8 72.462 79.462 86.462 93.462 96.962 106.3">1x6x4 (240 B)</tspan></text>
<text xml:space="preserve" transform="matrix(.7048253 0 0 .7048253 2.8193012 748.7993)" font-size="14" font-family="Times"><tspan y="-24.26" x="28.3 41.194 45.086 52.086 59.086 66.086 69.978 73.478 77.37 82.816 86.708 97.6 104.6">@input.lstm_x</tspan></text>
<path transform="matrix(.7048253,0,0,.7048253,2.8193012,748.7993)" d="M372.09-159.17C372.09-146.59069 351.35475-134.9669 317.695-128.67725 284.03526-122.38759 242.56475-122.38759 208.905-128.67725 175.24526-134.9669 154.51-146.59069 154.51-159.17 154.51-171.74933 175.24526-183.3731 208.905-189.66275 242.56475-195.95241 284.03526-195.95241 317.695-189.66275 351.35475-183.3731 372.09-171.74933 372.09-159.17Z" fill="#e6e6e6"/>
<path transform="matrix(.7048253,0,0,.7048253,2.8193012,748.7993)" stroke-width="1" stroke-linecap="butt" stroke-miterlimit="4" stroke-linejoin="miter" fill="none" stroke="#000000" d="M372.09-159.17C372.09-146.59069 351.35475-134.9669 317.695-128.67725 284.03526-122.38759 242.56475-122.38759 208.905-128.67725 175.24526-134.9669 154.51-146.59069 154.51-159.17 154.51-171.74933 175.24526-183.3731 208.905-189.66275 242.56475-195.95241 284.03526-195.95241 317.695-189.66275 351.35475-183.3731 372.09-171.74933 372.09-159.17Z"/>
<text xml:space="preserve" transform="matrix(.7048253 0 0 .7048253 2.8193012 748.7993)" font-size="14" font-family="Times" font-weight="bold"><tspan y="-169.97" x="231.3 235.192 240.638 245.3 256.962 263.962 270.962 277.962 284.962 289.624">lstm_1_3:1</tspan></text>
<text xml:space="preserve" transform="matrix(.7048253 0 0 .7048253 2.8193012 748.7993)" font-size="14" font-family="Times"><tspan y="-155.97" x="223.3 230.3 237.3 244.3 251.3 258.3 261.8 266.462 273.462 280.462 287.462 290.962 300.3">1x6x1 (168 B)</tspan></text>
<text xml:space="preserve" transform="matrix(.7048253 0 0 .7048253 2.8193012 748.7993)" font-size="14" font-family="Times"><tspan y="-141.97" x="194.3 201.3 207.516 212.178 218.394 229.286 234.732 238.624 242.124 249.124 256.124 263.124 266.624 270.124 277.124 284.124 291.124 294.624 298.124 305.124 312.124 315.624 319.124 326.124">params: 4x4, 4x1, x4, x4</tspan></text>
<path transform="matrix(.7048253,0,0,.7048253,2.8193012,748.7993)" stroke-width="1" stroke-linecap="butt" stroke-miterlimit="4" stroke-linejoin="miter" fill="none" stroke="#000000" d="M92.88-75.06C102.03-85.97 113.22-97.46 125.3-105.81 140.78-116.52 158.75-125.39 176.5-132.6"/>
<path transform="matrix(.7048253,0,0,.7048253,2.8193012,748.7993)" d="M175.61-134.88 183.02-135.18 177.41-130.33 175.61-134.88Z"/>
<path transform="matrix(.7048253,0,0,.7048253,2.8193012,748.7993)" stroke-width="1" stroke-linecap="butt" stroke-miterlimit="4" stroke-linejoin="miter" fill="none" stroke="#000000" d="M175.61-134.88 183.02-135.18 177.41-130.33 175.61-134.88Z"/>
<text xml:space="preserve" transform="matrix(.7048253 0 0 .7048253 2.8193012 748.7993)" font-size="10" font-family="Times" font-weight="bold"><tspan y="-98.81" x="125.3 130.3 134.64 139.64 142.14">arg 0</tspan></text>
<path transform="matrix(.7048253,0,0,.7048253,2.8193012,748.7993)" d="M608.09-159.17C608.09-146.59069 587.35476-134.9669 553.695-128.67725 520.0353-122.38759 478.56474-122.38759 444.905-128.67725 411.24528-134.9669 390.51-146.59069 390.51-159.17 390.51-171.74933 411.24528-183.3731 444.905-189.66275 478.56474-195.95241 520.0353-195.95241 553.695-189.66275 587.35476-183.3731 608.09-171.74933 608.09-159.17Z" fill="#e6e6e6"/>
<path transform="matrix(.7048253,0,0,.7048253,2.8193012,748.7993)" stroke-width="1" stroke-linecap="butt" stroke-miterlimit="4" stroke-linejoin="miter" fill="none" stroke="#000000" d="M608.09-159.17C608.09-146.59069 587.35476-134.9669 553.695-128.67725 520.0353-122.38759 478.56474-122.38759 444.905-128.67725 411.24528-134.9669 390.51-146.59069 390.51-159.17 390.51-171.74933 411.24528-183.3731 444.905-189.66275 478.56474-195.95241 520.0353-195.95241 553.695-189.66275 587.35476-183.3731 608.09-171.74933 608.09-159.17Z"/>
<text xml:space="preserve" transform="matrix(.7048253 0 0 .7048253 2.8193012 748.7993)" font-size="14" font-family="Times" font-weight="bold"><tspan y="-169.97" x="467.3 471.192 476.638 481.3 492.962 499.962 506.962 513.962 520.962 525.624">lstm_1_3:2</tspan></text>
<text xml:space="preserve" transform="matrix(.7048253 0 0 .7048253 2.8193012 748.7993)" font-size="14" font-family="Times"><tspan y="-155.97" x="459.3 466.3 473.3 480.3 487.3 494.3 497.8 502.462 509.462 516.462 523.462 526.962 536.3">1x1x1 (148 B)</tspan></text>
<text xml:space="preserve" transform="matrix(.7048253 0 0 .7048253 2.8193012 748.7993)" font-size="14" font-family="Times"><tspan y="-141.97" x="430.3 437.3 443.516 448.178 454.394 465.286 470.732 474.624 478.124 485.124 492.124 499.124 502.624 506.124 513.124 520.124 527.124 530.624 534.124 541.124 548.124 551.624 555.124 562.124">params: 4x4, 4x1, x4, x4</tspan></text>
<path transform="matrix(.7048253,0,0,.7048253,2.8193012,748.7993)" stroke-width="1" stroke-linecap="butt" stroke-miterlimit="4" stroke-linejoin="miter" fill="none" stroke="#000000" d="M110.16-70.14C131.59-83.24 158.85-97.75 185.3-105.81 268.98-131.31 295.35-107.51 381.3-123.81 392.77-125.99 404.74-128.81 416.46-131.89"/>
<path transform="matrix(.7048253,0,0,.7048253,2.8193012,748.7993)" d="M415.93-134.28 423.33-133.73 417.2-129.55 415.93-134.28Z"/>
<path transform="matrix(.7048253,0,0,.7048253,2.8193012,748.7993)" stroke-width="1" stroke-linecap="butt" stroke-miterlimit="4" stroke-linejoin="miter" fill="none" stroke="#000000" d="M415.93-134.28 423.33-133.73 417.2-129.55 415.93-134.28Z"/>
<text xml:space="preserve" transform="matrix(.7048253 0 0 .7048253 2.8193012 748.7993)" font-size="10" font-family="Times" font-weight="bold"><tspan y="-98.81" x="185.3 190.3 194.64 199.64 202.14">arg 0</tspan></text>
<path transform="matrix(.7048253,0,0,.7048253,2.8193012,748.7993)" d="M844.09-159.17C844.09-146.59069 823.35476-134.9669 789.695-128.67725 756.0353-122.38759 714.56478-122.38759 680.905-128.67725 647.24526-134.9669 626.51-146.59069 626.51-159.17 626.51-171.74933 647.24526-183.3731 680.905-189.66275 714.56478-195.95241 756.0353-195.95241 789.695-189.66275 823.35476-183.3731 844.09-171.74933 844.09-159.17Z" fill="#e6e6e6"/>
<path transform="matrix(.7048253,0,0,.7048253,2.8193012,748.7993)" stroke-width="1" stroke-linecap="butt" stroke-miterlimit="4" stroke-linejoin="miter" fill="none" stroke="#000000" d="M844.09-159.17C844.09-146.59069 823.35476-134.9669 789.695-128.67725 756.0353-122.38759 714.56478-122.38759 680.905-128.67725 647.24526-134.9669 626.51-146.59069 626.51-159.17 626.51-171.74933 647.24526-183.3731 680.905-189.66275 714.56478-195.95241 756.0353-195.95241 789.695-189.66275 823.35476-183.3731 844.09-171.74933 844.09-159.17Z"/>
<text xml:space="preserve" transform="matrix(.7048253 0 0 .7048253 2.8193012 748.7993)" font-size="14" font-family="Times" font-weight="bold"><tspan y="-169.97" x="703.3 707.192 712.638 717.3 728.962 735.962 742.962 749.962 756.962 761.624">lstm_1_3:3</tspan></text>
<text xml:space="preserve" transform="matrix(.7048253 0 0 .7048253 2.8193012 748.7993)" font-size="14" font-family="Times"><tspan y="-155.97" x="695.3 702.3 709.3 716.3 723.3 730.3 733.8 738.462 745.462 752.462 759.462 762.962 772.3">1x1x1 (148 B)</tspan></text>
<text xml:space="preserve" transform="matrix(.7048253 0 0 .7048253 2.8193012 748.7993)" font-size="14" font-family="Times"><tspan y="-141.97" x="666.3 673.3 679.516 684.178 690.394 701.286 706.732 710.624 714.124 721.124 728.124 735.124 738.624 742.124 749.124 756.124 763.124 766.624 770.124 777.124 784.124 787.624 791.124 798.124">params: 4x4, 4x1, x4, x4</tspan></text>
<path transform="matrix(.7048253,0,0,.7048253,2.8193012,748.7993)" stroke-width="1" stroke-linecap="butt" stroke-miterlimit="4" stroke-linejoin="miter" fill="none" stroke="#000000" d="M117.25-67.26C125.46-70.85 134.01-74.21 142.3-76.81 344.68-140.4 408.25-87.68 617.3-123.81 628.98-125.83 641.16-128.59 653.06-131.68"/>
<path transform="matrix(.7048253,0,0,.7048253,2.8193012,748.7993)" d="M652.64-134.1 660.03-133.53 653.89-129.37 652.64-134.1Z"/>
<path transform="matrix(.7048253,0,0,.7048253,2.8193012,748.7993)" stroke-width="1" stroke-linecap="butt" stroke-miterlimit="4" stroke-linejoin="miter" fill="none" stroke="#000000" d="M652.64-134.1 660.03-133.53 653.89-129.37 652.64-134.1Z"/>
<text xml:space="preserve" transform="matrix(.7048253 0 0 .7048253 2.8193012 748.7993)" font-size="10" font-family="Times" font-weight="bold"><tspan y="-98.81" x="267.3 272.3 276.64 281.64 284.14">arg 0</tspan></text>
<path transform="matrix(.7048253,0,0,.7048253,2.8193012,748.7993)" d="M326.17-290.98C326.17-281.9019 314.18705-273.51338 294.735-268.9743 275.28297-264.43525 251.31705-264.43525 231.865-268.9743 212.41295-273.51338 200.43-281.9019 200.43-290.98 200.43-300.0581 212.41295-308.44667 231.865-312.98573 251.31705-317.52476 275.28297-317.52476 294.735-312.98573 314.18705-308.44667 326.17-300.0581 326.17-290.98Z" fill="#ffffff"/>
<path transform="matrix(.7048253,0,0,.7048253,2.8193012,748.7993)" stroke-width="1" stroke-linecap="butt" stroke-miterlimit="4" stroke-linejoin="miter" fill="none" stroke="#000000" d="M326.17-290.98C326.17-281.9019 314.18705-273.51338 294.735-268.9743 275.28297-264.43525 251.31705-264.43525 231.865-268.9743 212.41295-273.51338 200.43-281.9019 200.43-290.98 200.43-300.0581 212.41295-308.44667 231.865-312.98573 251.31705-317.52476 275.28297-317.52476 294.735-312.98573 314.18705-308.44667 326.17-300.0581 326.17-290.98Z"/>
<text xml:space="preserve" transform="matrix(.7048253 0 0 .7048253 2.8193012 748.7993)" font-size="14" font-family="Times" font-weight="bold"><tspan y="-294.78" x="226.8 232.764 238.98 244.426 252.21 259.21 266.994 273.21 280.21 287.21 294.21">reshape_1_4</tspan></text>
<text xml:space="preserve" transform="matrix(.7048253 0 0 .7048253 2.8193012 748.7993)" font-size="14" font-family="Times"><tspan y="-280.78" x="229.8 236.8 243.8 250.8 254.3 258.962 265.962 272.962 279.962 283.462 292.8">1x6 (152 B)</tspan></text>
<path transform="matrix(.7048253,0,0,.7048253,2.8193012,748.7993)" stroke-width="1" stroke-linecap="butt" stroke-miterlimit="4" stroke-linejoin="miter" fill="none" stroke="#000000" d="M263.3-194.61C263.3-214.33 263.3-238.89 263.3-258.15"/>
<path transform="matrix(.7048253,0,0,.7048253,2.8193012,748.7993)" d="M260.85-258.25 263.3-265.25 265.75-258.25H260.85Z"/>
<path transform="matrix(.7048253,0,0,.7048253,2.8193012,748.7993)" stroke-width="1" stroke-linecap="butt" stroke-miterlimit="4" stroke-linejoin="miter" fill="none" stroke="#000000" d="M260.85-258.25 263.3-265.25 265.75-258.25H260.85Z"/>
<path transform="matrix(.7048253,0,0,.7048253,2.8193012,748.7993)" d="M484.31-489.79C484.31-477.2107 470.96617-465.5869 449.305-459.29725 427.64384-453.0076 400.95619-453.0076 379.295-459.29725 357.63383-465.5869 344.29-477.2107 344.29-489.79 344.29-502.36933 357.63383-513.9931 379.295-520.2828 400.95619-526.5724 427.64384-526.5724 449.305-520.2828 470.96617-513.9931 484.31-502.36933 484.31-489.79Z" fill="#98fb98"/>
<path transform="matrix(.7048253,0,0,.7048253,2.8193012,748.7993)" stroke-width="1" stroke-linecap="butt" stroke-miterlimit="4" stroke-linejoin="miter" fill="none" stroke="#000000" d="M484.31-489.79C484.31-477.2107 470.96617-465.5869 449.305-459.29725 427.64384-453.0076 400.95619-453.0076 379.295-459.29725 357.63383-465.5869 344.29-477.2107 344.29-489.79 344.29-502.36933 357.63383-513.9931 379.295-520.2828 400.95619-526.5724 427.64384-526.5724 449.305-520.2828 470.96617-513.9931 484.31-502.36933 484.31-489.79Z"/>
<text xml:space="preserve" transform="matrix(.7048253 0 0 .7048253 2.8193012 748.7993)" font-size="14" font-family="Times" font-weight="bold"><tspan y="-500.59" x="391.8 395.692 403.476 411.26 419.044 423.706 430.706">input_2</tspan></text>
<text xml:space="preserve" transform="matrix(.7048253 0 0 .7048253 2.8193012 748.7993)" font-size="14" font-family="Times"><tspan y="-486.59" x="377.8 384.8 391.8 398.8 405.8 409.3 413.962 420.962 427.962 434.962 438.462 447.8">1x50 (328 B)</tspan></text>
<text xml:space="preserve" transform="matrix(.7048253 0 0 .7048253 2.8193012 748.7993)" font-size="14" font-family="Times"><tspan y="-472.59" x="372.8 385.694 389.586 396.586 403.586 410.586 414.478 417.978 423.424 427.316 433.532 437.424 443.64 450.64">@input.state_x</tspan></text>
<path transform="matrix(.7048253,0,0,.7048253,2.8193012,748.7993)" d="M447.17-597.6C447.17-588.52188 435.18705-580.13339 415.735-575.5943 396.28297-571.05526 372.31706-571.05526 352.865-575.5943 333.41297-580.13339 321.43-588.52188 321.43-597.6 321.43-606.6781 333.41297-615.06668 352.865-619.6057 372.31706-624.1448 396.28297-624.1448 415.735-619.6057 435.18705-615.06668 447.17-606.6781 447.17-597.6Z" fill="#ffffff"/>
<path transform="matrix(.7048253,0,0,.7048253,2.8193012,748.7993)" stroke-width="1" stroke-linecap="butt" stroke-miterlimit="4" stroke-linejoin="miter" fill="none" stroke="#000000" d="M447.17-597.6C447.17-588.52188 435.18705-580.13339 415.735-575.5943 396.28297-571.05526 372.31706-571.05526 352.865-575.5943 333.41297-580.13339 321.43-588.52188 321.43-597.6 321.43-606.6781 333.41297-615.06668 352.865-619.6057 372.31706-624.1448 396.28297-624.1448 415.735-619.6057 435.18705-615.06668 447.17-606.6781 447.17-597.6Z"/>
<text xml:space="preserve" transform="matrix(.7048253 0 0 .7048253 2.8193012 748.7993)" font-size="14" font-family="Times" font-weight="bold"><tspan y="-601.4" x="351.8 359.584 365.03 369.692 376.692 382.908 390.692 397.692 404.692 411.692">hstack_1_7</tspan></text>
<text xml:space="preserve" transform="matrix(.7048253 0 0 .7048253 2.8193012 748.7993)" font-size="14" font-family="Times"><tspan y="-587.4" x="347.8 354.8 361.8 368.8 375.8 379.3 383.962 390.962 397.962 404.962 408.462 417.8">1x51 (332 B)</tspan></text>
<path transform="matrix(.7048253,0,0,.7048253,2.8193012,748.7993)" stroke-width="1" stroke-linecap="butt" stroke-miterlimit="4" stroke-linejoin="miter" fill="none" stroke="#000000" d="M404.64-524.85C400.97-537.8 396.81-552.48 393.21-565.17"/>
<path transform="matrix(.7048253,0,0,.7048253,2.8193012,748.7993)" d="M390.83-564.59 391.27-571.99 395.54-565.93 390.83-564.59Z"/>
<path transform="matrix(.7048253,0,0,.7048253,2.8193012,748.7993)" stroke-width="1" stroke-linecap="butt" stroke-miterlimit="4" stroke-linejoin="miter" fill="none" stroke="#000000" d="M390.83-564.59 391.27-571.99 395.54-565.93 390.83-564.59Z"/>
<text xml:space="preserve" transform="matrix(.7048253 0 0 .7048253 2.8193012 748.7993)" font-size="10" font-family="Times" font-weight="bold"><tspan y="-547.14" x="399.3 404.3 408.64 413.64 416.14 419.47 424.47 426.97 429.47 434.47">arg (0, 0)</tspan></text>
<path transform="matrix(.7048253,0,0,.7048253,2.8193012,748.7993)" d="M440.3-724.06H328.3V-660.06H440.3V-724.06Z" fill="#e6e6e6"/>
<path transform="matrix(.7048253,0,0,.7048253,2.8193012,748.7993)" stroke-width="1" stroke-linecap="butt" stroke-miterlimit="4" stroke-linejoin="miter" fill="none" stroke="#000000" d="M440.3-724.06H328.3V-660.06H440.3V-724.06Z"/>
<text xml:space="preserve" transform="matrix(.7048253 0 0 .7048253 2.8193012 748.7993)" font-size="14" font-family="Times" font-weight="bold"><tspan y="-709.86" x="353.8 357.692 361.584 369.368 375.584 382.584 388.8 395.8 402.8 409.8">linear_2_8</tspan></text>
<text xml:space="preserve" transform="matrix(.7048253 0 0 .7048253 2.8193012 748.7993)" font-size="14" font-family="Times"><tspan y="-695.86" x="350.8 357.8 364.8 371.8 375.3 379.962 386.962 393.962 400.962 404.462 413.8">1x1 (132 B)</tspan></text>
<text xml:space="preserve" transform="matrix(.7048253 0 0 .7048253 2.8193012 748.7993)" font-size="14" font-family="Times"><tspan y="-681.86" x="336.3 343.3 349.516 354.178 360.394 371.286 376.732 380.624 384.124 391.124 398.124 405.124 412.124 415.624 419.124 426.124">params: 1x51, x1</tspan></text>
<text xml:space="preserve" transform="matrix(.7048253 0 0 .7048253 2.8193012 748.7993)" font-size="14" font-family="Times"><tspan y="-667.86" x="345.3 358.194 364.41 371.41 382.302 389.302 396.302 400.194 406.41 413.41 419.626">@comb_layer</tspan></text>
<path transform="matrix(.7048253,0,0,.7048253,2.8193012,748.7993)" stroke-width="1" stroke-linecap="butt" stroke-miterlimit="4" stroke-linejoin="miter" fill="none" stroke="#000000" d="M384.3-623.38C384.3-632.42 384.3-642.86 384.3-652.8"/>
<path transform="matrix(.7048253,0,0,.7048253,2.8193012,748.7993)" d="M381.85-652.92 384.3-659.92 386.75-652.92H381.85Z"/>
<path transform="matrix(.7048253,0,0,.7048253,2.8193012,748.7993)" stroke-width="1" stroke-linecap="butt" stroke-miterlimit="4" stroke-linejoin="miter" fill="none" stroke="#000000" d="M381.85-652.92 384.3-659.92 386.75-652.92H381.85Z"/>
<path transform="matrix(.7048253,0,0,.7048253,2.8193012,748.7993)" d="M680.06-41.46C680.06-32.38188 667.145-23.993355 646.18-19.454295 625.21499-14.915236 599.385-14.915236 578.42-19.454295 557.45498-23.993355 544.54-32.38188 544.54-41.46 544.54-50.53812 557.45498-58.926649 578.42-63.465707 599.385-68.00476 625.21499-68.00476 646.18-63.465707 667.145-58.926649 680.06-50.53812 680.06-41.46Z" fill="#ffffff"/>
<path transform="matrix(.7048253,0,0,.7048253,2.8193012,748.7993)" stroke-width="1" stroke-linecap="butt" stroke-dasharray="5,2" stroke-miterlimit="4" stroke-linejoin="miter" fill="none" stroke="#000000" d="M680.06-41.46C680.06-32.38188 667.145-23.993355 646.18-19.454295 625.21499-14.915236 599.385-14.915236 578.42-19.454295 557.45498-23.993355 544.54-32.38188 544.54-41.46 544.54-50.53812 557.45498-58.926649 578.42-63.465707 599.385-68.00476 625.21499-68.00476 646.18-63.465707 667.145-58.926649 680.06-50.53812 680.06-41.46Z"/>
<text xml:space="preserve" transform="matrix(.7048253 0 0 .7048253 2.8193012 748.7993)" font-size="14" font-family="Times" font-weight="bold"><tspan y="-45.26" x="583.3 589.516 595.732 601.696 608.696 614.142 621.142 628.142 635.142">zeros_1_1</tspan></text>
<text xml:space="preserve" transform="matrix(.7048253 0 0 .7048253 2.8193012 748.7993)" font-size="14" font-family="Times"><tspan y="-31.26" x="572.3 579.3 586.3 593.3 600.3 607.3 610.8 615.462 622.462 629.462 636.462 639.962 649.3">1x1x1 (148 B)</tspan></text>
<path transform="matrix(.7048253,0,0,.7048253,2.8193012,748.7993)" stroke-width="1" stroke-linecap="butt" stroke-dasharray="5,2" stroke-miterlimit="4" stroke-linejoin="miter" fill="none" stroke="#000000" d="M565.49-60.02C541.21-69.56 511.29-82 485.3-94.81 476.54-99.12 475.41-102.31 466.3-105.81 430.25-119.66 418.75-114.41 381.3-123.81 370.59-126.5 359.38-129.51 348.32-132.59"/>
<path transform="matrix(.7048253,0,0,.7048253,2.8193012,748.7993)" d="M347.54-130.27 341.46-134.52 348.86-134.98 347.54-130.27Z"/>
<path transform="matrix(.7048253,0,0,.7048253,2.8193012,748.7993)" stroke-width="1" stroke-linecap="butt" stroke-miterlimit="4" stroke-linejoin="miter" fill="none" stroke="#000000" d="M347.54-130.27 341.46-134.52 348.86-134.98 347.54-130.27Z"/>
<text xml:space="preserve" transform="matrix(.7048253 0 0 .7048253 2.8193012 748.7993)" font-size="10" font-family="Times" font-weight="bold"><tspan y="-98.81" x="485.3 490.3 494.64 499.64 502.14 505.47 510.47 512.97 515.47 520.47">arg (1, 0)</tspan></text>
<path transform="matrix(.7048253,0,0,.7048253,2.8193012,748.7993)" stroke-width="1" stroke-linecap="butt" stroke-dasharray="5,2" stroke-miterlimit="4" stroke-linejoin="miter" fill="none" stroke="#000000" d="M608.05-67.06C604.86-79.72 599.43-94.78 590.3-105.81 583.97-113.45 576.22-120.21 567.93-126.12"/>
<path transform="matrix(.7048253,0,0,.7048253,2.8193012,748.7993)" d="M566.53-124.11 562.13-130.07 569.29-128.16 566.53-124.11Z"/>
<path transform="matrix(.7048253,0,0,.7048253,2.8193012,748.7993)" stroke-width="1" stroke-linecap="butt" stroke-miterlimit="4" stroke-linejoin="miter" fill="none" stroke="#000000" d="M566.53-124.11 562.13-130.07 569.29-128.16 566.53-124.11Z"/>
<text xml:space="preserve" transform="matrix(.7048253 0 0 .7048253 2.8193012 748.7993)" font-size="10" font-family="Times" font-weight="bold"><tspan y="-98.81" x="597.3 602.3 606.64 611.64 614.14 617.47 622.47 624.97 627.47 632.47">arg (1, 0)</tspan></text>
<path transform="matrix(.7048253,0,0,.7048253,2.8193012,748.7993)" stroke-width="1" stroke-linecap="butt" stroke-dasharray="5,2" stroke-miterlimit="4" stroke-linejoin="miter" fill="none" stroke="#000000" d="M636.6-65.32C653.24-80.97 675.69-102.1 694.98-120.24"/>
<path transform="matrix(.7048253,0,0,.7048253,2.8193012,748.7993)" d="M693.56-122.26 700.33-125.27 696.91-118.69 693.56-122.26Z"/>
<path transform="matrix(.7048253,0,0,.7048253,2.8193012,748.7993)" stroke-width="1" stroke-linecap="butt" stroke-miterlimit="4" stroke-linejoin="miter" fill="none" stroke="#000000" d="M693.56-122.26 700.33-125.27 696.91-118.69 693.56-122.26Z"/>
<text xml:space="preserve" transform="matrix(.7048253 0 0 .7048253 2.8193012 748.7993)" font-size="10" font-family="Times" font-weight="bold"><tspan y="-98.81" x="677.3 682.3 686.64 691.64 694.14 697.47 702.47 704.97 707.47 712.47">arg (1, 0)</tspan></text>
<path transform="matrix(.7048253,0,0,.7048253,2.8193012,748.7993)" d="M494.06-41.46C494.06-32.38188 481.14503-23.993355 460.18-19.454295 439.215-14.915236 413.385-14.915236 392.42-19.454295 371.455-23.993355 358.54-32.38188 358.54-41.46 358.54-50.53812 371.455-58.926649 392.42-63.465707 413.385-68.00476 439.215-68.00476 460.18-63.465707 481.14503-58.926649 494.06-50.53812 494.06-41.46Z" fill="#ffffff"/>
<path transform="matrix(.7048253,0,0,.7048253,2.8193012,748.7993)" stroke-width="1" stroke-linecap="butt" stroke-dasharray="5,2" stroke-miterlimit="4" stroke-linejoin="miter" fill="none" stroke="#000000" d="M494.06-41.46C494.06-32.38188 481.14503-23.993355 460.18-19.454295 439.215-14.915236 413.385-14.915236 392.42-19.454295 371.455-23.993355 358.54-32.38188 358.54-41.46 358.54-50.53812 371.455-58.926649 392.42-63.465707 413.385-68.00476 439.215-68.00476 460.18-63.465707 481.14503-58.926649 494.06-50.53812 494.06-41.46Z"/>
<text xml:space="preserve" transform="matrix(.7048253 0 0 .7048253 2.8193012 748.7993)" font-size="14" font-family="Times" font-weight="bold"><tspan y="-45.26" x="397.3 403.516 409.732 415.696 422.696 428.142 435.142 442.142 449.142">zeros_2_2</tspan></text>
<text xml:space="preserve" transform="matrix(.7048253 0 0 .7048253 2.8193012 748.7993)" font-size="14" font-family="Times"><tspan y="-31.26" x="386.3 393.3 400.3 407.3 414.3 421.3 424.8 429.462 436.462 443.462 450.462 453.962 463.3">1x1x1 (148 B)</tspan></text>
<path transform="matrix(.7048253,0,0,.7048253,2.8193012,748.7993)" stroke-width="1" stroke-linecap="butt" stroke-dasharray="5,2" stroke-miterlimit="4" stroke-linejoin="miter" fill="none" stroke="#000000" d="M395.64-64.22C372.57-80.59 340.47-103.38 313.65-122.42"/>
<path transform="matrix(.7048253,0,0,.7048253,2.8193012,748.7993)" d="M311.96-120.62 307.67-126.67 314.79-124.61 311.96-120.62Z"/>
<path transform="matrix(.7048253,0,0,.7048253,2.8193012,748.7993)" stroke-width="1" stroke-linecap="butt" stroke-miterlimit="4" stroke-linejoin="miter" fill="none" stroke="#000000" d="M311.96-120.62 307.67-126.67 314.79-124.61 311.96-120.62Z"/>
<text xml:space="preserve" transform="matrix(.7048253 0 0 .7048253 2.8193012 748.7993)" font-size="10" font-family="Times" font-weight="bold"><tspan y="-98.81" x="349.3 354.3 358.64 363.64 366.14 369.47 374.47 376.97 379.47 384.47">arg (1, 1)</tspan></text>
<path transform="matrix(.7048253,0,0,.7048253,2.8193012,748.7993)" stroke-width="1" stroke-linecap="butt" stroke-dasharray="5,2" stroke-miterlimit="4" stroke-linejoin="miter" fill="none" stroke="#000000" d="M421.72-66.87C420.6-79.2 421.16-94 427.3-105.81 430.61-112.19 435.09-117.98 440.21-123.18"/>
<path transform="matrix(.7048253,0,0,.7048253,2.8193012,748.7993)" d="M438.75-125.17 445.53-128.19 442.11-121.6 438.75-125.17Z"/>
<path transform="matrix(.7048253,0,0,.7048253,2.8193012,748.7993)" stroke-width="1" stroke-linecap="butt" stroke-miterlimit="4" stroke-linejoin="miter" fill="none" stroke="#000000" d="M438.75-125.17 445.53-128.19 442.11-121.6 438.75-125.17Z"/>
<text xml:space="preserve" transform="matrix(.7048253 0 0 .7048253 2.8193012 748.7993)" font-size="10" font-family="Times" font-weight="bold"><tspan y="-98.81" x="427.3 432.3 436.64 441.64 444.14 447.47 452.47 454.97 457.47 462.47">arg (1, 1)</tspan></text>
<path transform="matrix(.7048253,0,0,.7048253,2.8193012,748.7993)" stroke-width="1" stroke-linecap="butt" stroke-dasharray="5,2" stroke-miterlimit="4" stroke-linejoin="miter" fill="none" stroke="#000000" d="M466.26-62.38C485.18-71.96 508.03-83.75 528.3-94.81 536.86-99.48 538.27-102.12 547.3-105.81 577.03-117.97 586.32-115.32 617.3-123.81 627.59-126.63 638.37-129.66 649.05-132.72"/>
<path transform="matrix(.7048253,0,0,.7048253,2.8193012,748.7993)" d="M648.65-135.15 656.05-134.72 650-130.44 648.65-135.15Z"/>
<path transform="matrix(.7048253,0,0,.7048253,2.8193012,748.7993)" stroke-width="1" stroke-linecap="butt" stroke-miterlimit="4" stroke-linejoin="miter" fill="none" stroke="#000000" d="M648.65-135.15 656.05-134.72 650-130.44 648.65-135.15Z"/>
<text xml:space="preserve" transform="matrix(.7048253 0 0 .7048253 2.8193012 748.7993)" font-size="10" font-family="Times" font-weight="bold"><tspan y="-98.81" x="547.3 552.3 556.64 561.64 564.14 567.47 572.47 574.97 577.47 582.47">arg (1, 1)</tspan></text>
<path transform="matrix(.7048253,0,0,.7048253,2.8193012,748.7993)" d="M319.3-417.43H207.3V-353.43H319.3V-417.43Z" fill="#e6e6e6"/>
<path transform="matrix(.7048253,0,0,.7048253,2.8193012,748.7993)" stroke-width="1" stroke-linecap="butt" stroke-miterlimit="4" stroke-linejoin="miter" fill="none" stroke="#000000" d="M319.3-417.43H207.3V-353.43H319.3V-417.43Z"/>
<text xml:space="preserve" transform="matrix(.7048253 0 0 .7048253 2.8193012 748.7993)" font-size="14" font-family="Times" font-weight="bold"><tspan y="-403.23" x="232.8 236.692 240.584 248.368 254.584 261.584 267.8 274.8 281.8 288.8">linear_1_5</tspan></text>
<text xml:space="preserve" transform="matrix(.7048253 0 0 .7048253 2.8193012 748.7993)" font-size="14" font-family="Times"><tspan y="-389.23" x="229.8 236.8 243.8 250.8 254.3 258.962 265.962 272.962 279.962 283.462 292.8">1x1 (132 B)</tspan></text>
<text xml:space="preserve" transform="matrix(.7048253 0 0 .7048253 2.8193012 748.7993)" font-size="14" font-family="Times"><tspan y="-375.23" x="218.8 225.8 232.016 236.678 242.894 253.786 259.232 263.124 266.624 273.624 280.624 287.624 291.124 294.624 301.624">params: 1x6, x1</tspan></text>
<text xml:space="preserve" transform="matrix(.7048253 0 0 .7048253 2.8193012 748.7993)" font-size="14" font-family="Times"><tspan y="-361.23" x="215.3 228.194 235.194 239.856 246.072 251.518 256.964 263.964 268.626 274.842 281.842 285.734 289.626 296.626 302.842 309.058">@pressure_linear</tspan></text>
<path transform="matrix(.7048253,0,0,.7048253,2.8193012,748.7993)" stroke-width="1" stroke-linecap="butt" stroke-miterlimit="4" stroke-linejoin="miter" fill="none" stroke="#000000" d="M263.3-316.75C263.3-325.79 263.3-336.24 263.3-346.18"/>
<path transform="matrix(.7048253,0,0,.7048253,2.8193012,748.7993)" d="M260.85-346.3 263.3-353.3 265.75-346.3H260.85Z"/>
<path transform="matrix(.7048253,0,0,.7048253,2.8193012,748.7993)" stroke-width="1" stroke-linecap="butt" stroke-miterlimit="4" stroke-linejoin="miter" fill="none" stroke="#000000" d="M260.85-346.3 263.3-353.3 265.75-346.3H260.85Z"/>
<path transform="matrix(.7048253,0,0,.7048253,2.8193012,748.7993)" d="M326.17-489.79C326.17-480.71189 314.18705-472.32337 294.735-467.7843 275.28297-463.24525 251.31705-463.24525 231.865-467.7843 212.41295-472.32337 200.43-480.71189 200.43-489.79 200.43-498.86814 212.41295-507.25666 231.865-511.79573 251.31705-516.3348 275.28297-516.3348 294.735-511.79573 314.18705-507.25666 326.17-498.86814 326.17-489.79Z" fill="#ffffff"/>
<path transform="matrix(.7048253,0,0,.7048253,2.8193012,748.7993)" stroke-width="1" stroke-linecap="butt" stroke-miterlimit="4" stroke-linejoin="miter" fill="none" stroke="#000000" d="M326.17-489.79C326.17-480.71189 314.18705-472.32337 294.735-467.7843 275.28297-463.24525 251.31705-463.24525 231.865-467.7843 212.41295-472.32337 200.43-480.71189 200.43-489.79 200.43-498.86814 212.41295-507.25666 231.865-511.79573 251.31705-516.3348 275.28297-516.3348 294.735-511.79573 314.18705-507.25666 326.17-498.86814 326.17-489.79Z"/>
<text xml:space="preserve" transform="matrix(.7048253 0 0 .7048253 2.8193012 748.7993)" font-size="14" font-family="Times" font-weight="bold"><tspan y="-493.59" x="226.8 232.246 236.138 243.138 254.8 261.8 265.692 273.476 280.476 287.476 294.476">sigmoid_1_6</tspan></text>
<text xml:space="preserve" transform="matrix(.7048253 0 0 .7048253 2.8193012 748.7993)" font-size="14" font-family="Times"><tspan y="-479.59" x="229.8 236.8 243.8 250.8 254.3 258.962 265.962 272.962 279.962 283.462 292.8">1x1 (132 B)</tspan></text>
<path transform="matrix(.7048253,0,0,.7048253,2.8193012,748.7993)" stroke-width="1" stroke-linecap="butt" stroke-miterlimit="4" stroke-linejoin="miter" fill="none" stroke="#000000" d="M263.3-417.7C263.3-430.18 263.3-444.54 263.3-457.07"/>
<path transform="matrix(.7048253,0,0,.7048253,2.8193012,748.7993)" d="M260.85-457.2 263.3-464.2 265.75-457.2H260.85Z"/>
<path transform="matrix(.7048253,0,0,.7048253,2.8193012,748.7993)" stroke-width="1" stroke-linecap="butt" stroke-miterlimit="4" stroke-linejoin="miter" fill="none" stroke="#000000" d="M260.85-457.2 263.3-464.2 265.75-457.2H260.85Z"/>
<path transform="matrix(.7048253,0,0,.7048253,2.8193012,748.7993)" stroke-width="1" stroke-linecap="butt" stroke-miterlimit="4" stroke-linejoin="miter" fill="none" stroke="#000000" d="M288.96-513.23C307.73-529.64 333.28-551.99 353.21-569.42"/>
<path transform="matrix(.7048253,0,0,.7048253,2.8193012,748.7993)" d="M351.79-571.43 358.67-574.19 355.02-567.74 351.79-571.43Z"/>
<path transform="matrix(.7048253,0,0,.7048253,2.8193012,748.7993)" stroke-width="1" stroke-linecap="butt" stroke-miterlimit="4" stroke-linejoin="miter" fill="none" stroke="#000000" d="M351.79-571.43 358.67-574.19 355.02-567.74 351.79-571.43Z"/>
<text xml:space="preserve" transform="matrix(.7048253 0 0 .7048253 2.8193012 748.7993)" font-size="10" font-family="Times" font-weight="bold"><tspan y="-547.14" x="334.3 339.3 343.64 348.64 351.14 354.47 359.47 361.97 364.47 369.47">arg (0, 1)</tspan></text>
<path transform="matrix(.7048253,0,0,.7048253,2.8193012,748.7993)" d="M322.18-973.03C322.18-960.4507 310.95756-948.8269 292.74-942.53726 274.52247-936.24758 252.07753-936.24758 233.86-942.53726 215.64247-948.8269 204.42-960.4507 204.42-973.03 204.42-985.6093 215.64247-997.2331 233.86-1003.52279 252.07753-1009.81246 274.52247-1009.81246 292.74-1003.52279 310.95756-997.2331 322.18-985.6093 322.18-973.03Z" fill="#ff9999"/>
<path transform="matrix(.7048253,0,0,.7048253,2.8193012,748.7993)" stroke-width="1" stroke-linecap="butt" stroke-miterlimit="4" stroke-linejoin="miter" fill="none" stroke="#000000" d="M322.18-973.03C322.18-960.4507 310.95756-948.8269 292.74-942.53726 274.52247-936.24758 252.07753-936.24758 233.86-942.53726 215.64247-948.8269 204.42-960.4507 204.42-973.03 204.42-985.6093 215.64247-997.2331 233.86-1003.52279 252.07753-1009.81246 274.52247-1009.81246 292.74-1003.52279 310.95756-997.2331 322.18-985.6093 322.18-973.03Z"/>
<text xml:space="preserve" transform="matrix(.7048253 0 0 .7048253 2.8193012 748.7993)" font-size="14" font-family="Times" font-weight="bold"><tspan y="-983.83" x="237.3 244.3 252.084 256.746 264.53 272.314 276.976 283.976">output_2</tspan></text>
<text xml:space="preserve" transform="matrix(.7048253 0 0 .7048253 2.8193012 748.7993)" font-size="14" font-family="Times"><tspan y="-969.83" x="229.8 236.8 243.8 250.8 254.3 258.962 265.962 272.962 279.962 283.462 292.8">1x1 (132 B)</tspan></text>
<text xml:space="preserve" transform="matrix(.7048253 0 0 .7048253 2.8193012 748.7993)" font-size="14" font-family="Times"><tspan y="-955.83" x="234.3 247.194 254.194 261.194 265.086 272.086 279.086 282.978 286.478">@output.1</tspan></text>
<path transform="matrix(.7048253,0,0,.7048253,2.8193012,748.7993)" stroke-width="1" stroke-linecap="butt" stroke-miterlimit="4" stroke-linejoin="miter" fill="none" stroke="#000000" d="M263.3-515.59C263.3-537.03 263.3-568.86 263.3-596.6V-830.97C263.3-864.35 263.3-902.18 263.3-930.26"/>
<path transform="matrix(.7048253,0,0,.7048253,2.8193012,748.7993)" d="M260.85-930.54 263.3-937.54 265.75-930.54H260.85Z"/>
<path transform="matrix(.7048253,0,0,.7048253,2.8193012,748.7993)" stroke-width="1" stroke-linecap="butt" stroke-miterlimit="4" stroke-linejoin="miter" fill="none" stroke="#000000" d="M260.85-930.54 263.3-937.54 265.75-930.54H260.85Z"/>
<path transform="matrix(.7048253,0,0,.7048253,2.8193012,748.7993)" d="M443.18-786.51C443.18-777.4319 431.95756-769.04336 413.74-764.5043 395.52247-759.9652 373.07756-759.9652 354.86-764.5043 336.64247-769.04336 325.42-777.4319 325.42-786.51 325.42-795.58816 336.64247-803.9766 354.86-808.5157 373.07756-813.05477 395.52247-813.05477 413.74-808.5157 431.95756-803.9766 443.18-795.58816 443.18-786.51Z" fill="#ffffff"/>
<path transform="matrix(.7048253,0,0,.7048253,2.8193012,748.7993)" stroke-width="1" stroke-linecap="butt" stroke-miterlimit="4" stroke-linejoin="miter" fill="none" stroke="#000000" d="M443.18-786.51C443.18-777.4319 431.95756-769.04336 413.74-764.5043 395.52247-759.9652 373.07756-759.9652 354.86-764.5043 336.64247-769.04336 325.42-777.4319 325.42-786.51 325.42-795.58816 336.64247-803.9766 354.86-808.5157 373.07756-813.05477 395.52247-813.05477 413.74-808.5157 431.95756-803.9766 443.18-795.58816 443.18-786.51Z"/>
<text xml:space="preserve" transform="matrix(.7048253 0 0 .7048253 2.8193012 748.7993)" font-size="14" font-family="Times" font-weight="bold"><tspan y="-790.31" x="358.8 364.764 370.98 374.872 382.656 389.656 396.656 403.656">relu_1_9</tspan></text>
<text xml:space="preserve" transform="matrix(.7048253 0 0 .7048253 2.8193012 748.7993)" font-size="14" font-family="Times"><tspan y="-776.31" x="350.8 357.8 364.8 371.8 375.3 379.962 386.962 393.962 400.962 404.462 413.8">1x1 (132 B)</tspan></text>
<path transform="matrix(.7048253,0,0,.7048253,2.8193012,748.7993)" stroke-width="1" stroke-linecap="butt" stroke-miterlimit="4" stroke-linejoin="miter" fill="none" stroke="#000000" d="M384.3-724.1C384.3-733.63 384.3-744.13 384.3-753.71"/>
<path transform="matrix(.7048253,0,0,.7048253,2.8193012,748.7993)" d="M381.85-753.83 384.3-760.83 386.75-753.83H381.85Z"/>
<path transform="matrix(.7048253,0,0,.7048253,2.8193012,748.7993)" stroke-width="1" stroke-linecap="butt" stroke-miterlimit="4" stroke-linejoin="miter" fill="none" stroke="#000000" d="M381.85-753.83 384.3-760.83 386.75-753.83H381.85Z"/>
<path transform="matrix(.7048253,0,0,.7048253,2.8193012,748.7993)" d="M443.18-884.32C443.18-871.74069 431.95756-860.1169 413.74-853.8273 395.52247-847.5376 373.07756-847.5376 354.86-853.8273 336.64247-860.1169 325.42-871.74069 325.42-884.32 325.42-896.8993 336.64247-908.5231 354.86-914.81277 373.07756-921.1024 395.52247-921.1024 413.74-914.81277 431.95756-908.5231 443.18-896.8993 443.18-884.32Z" fill="#ff9999"/>
<path transform="matrix(.7048253,0,0,.7048253,2.8193012,748.7993)" stroke-width="1" stroke-linecap="butt" stroke-miterlimit="4" stroke-linejoin="miter" fill="none" stroke="#000000" d="M443.18-884.32C443.18-871.74069 431.95756-860.1169 413.74-853.8273 395.52247-847.5376 373.07756-847.5376 354.86-853.8273 336.64247-860.1169 325.42-871.74069 325.42-884.32 325.42-896.8993 336.64247-908.5231 354.86-914.81277 373.07756-921.1024 395.52247-921.1024 413.74-914.81277 431.95756-908.5231 443.18-896.8993 443.18-884.32Z"/>
<text xml:space="preserve" transform="matrix(.7048253 0 0 .7048253 2.8193012 748.7993)" font-size="14" font-family="Times" font-weight="bold"><tspan y="-895.12" x="358.3 365.3 373.084 377.746 385.53 393.314 397.976 404.976">output_1</tspan></text>
<text xml:space="preserve" transform="matrix(.7048253 0 0 .7048253 2.8193012 748.7993)" font-size="14" font-family="Times"><tspan y="-881.12" x="350.8 357.8 364.8 371.8 375.3 379.962 386.962 393.962 400.962 404.462 413.8">1x1 (132 B)</tspan></text>
<text xml:space="preserve" transform="matrix(.7048253 0 0 .7048253 2.8193012 748.7993)" font-size="14" font-family="Times"><tspan y="-867.12" x="355.3 368.194 375.194 382.194 386.086 393.086 400.086 403.978 407.478">@output.0</tspan></text>
<path transform="matrix(.7048253,0,0,.7048253,2.8193012,748.7993)" stroke-width="1" stroke-linecap="butt" stroke-miterlimit="4" stroke-linejoin="miter" fill="none" stroke="#000000" d="M384.3-812.19C384.3-821.11 384.3-831.45 384.3-841.44"/>
<path transform="matrix(.7048253,0,0,.7048253,2.8193012,748.7993)" d="M381.85-841.62 384.3-848.62 386.75-841.62H381.85Z"/>
<path transform="matrix(.7048253,0,0,.7048253,2.8193012,748.7993)" stroke-width="1" stroke-linecap="butt" stroke-miterlimit="4" stroke-linejoin="miter" fill="none" stroke="#000000" d="M381.85-841.62 384.3-848.62 386.75-841.62H381.85Z"/>
</g>
</svg>
